<svg xmlns="http://www.w3.org/2000/svg" width="599.52" height="496.8" viewBox="0 0 599.52 496.8">
  <defs>
    <style>
      .cls-1 {
        fill: #fefe62;
      }

      .cls-2 {
        fill: #ffffad;
      }

      .cls-3 {
        fill: #ff0;
      }

      .cls-4 {
        fill: #ffff01;
      }

      .cls-5 {
        fill: #ffff08;
      }

      .cls-6 {
        fill: #ffff03;
      }

      .cls-7 {
        fill: #ffff0a;
      }

      .cls-8 {
        fill: #ffff09;
      }

      .cls-9 {
        fill: #ffff0d;
      }

      .cls-10 {
        fill: #ffff0b;
      }

      .cls-11 {
        fill: #ffff05;
      }

      .cls-12 {
        fill: #ffff07;
      }
    </style>
  </defs>
  <g id="Group_1" data-name="Group 1" transform="translate(-332 -1236)">
    <path id="Path_1" data-name="Path 1" class="cls-1" d="M19.589,432.432a.561.561,0,0,0,.441.044v17.76a3.376,3.376,0,0,0-.425.038Q19.6,441.354,19.589,432.432Z" transform="translate(911.49 995.524)"/>
    <path id="Path_2" data-name="Path 2" class="cls-2" d="M-578.743,704.676l-.747-.04v-9.12l.731-.034c.05,2.436.111,4.873.142,7.31C-578.609,703.419-578.7,704.048-578.743,704.676Z" transform="translate(911.49 995.524)"/>
    <path id="Path_3" data-name="Path 3" class="cls-1" d="M-188.29,240.476h10.08a.944.944,0,0,0,.022.451h-10.125A.965.965,0,0,0-188.29,240.476Z" transform="translate(911.49 995.524)"/>
    <path id="Path_4" data-name="Path 4" class="cls-2" d="M-143.67,736.763l.02.513h-7.2a3.941,3.941,0,0,0-.01-.461Z" transform="translate(911.49 995.524)"/>
    <path id="Path_5" data-name="Path 5" class="cls-2" d="M-178.188,240.927a.944.944,0,0,1-.022-.451h4.8a1.374,1.374,0,0,0,.03.414Z" transform="translate(911.49 995.524)"/>
    <path id="Path_6" data-name="Path 6" class="cls-2" d="M19.6,450.274a3.376,3.376,0,0,1,.425-.038v4.8c-.141,0-.282.011-.422.027Q19.607,452.669,19.6,450.274Z" transform="translate(911.49 995.524)"/>
    <path id="Path_7" data-name="Path 7" class="cls-1" d="M-371.65,737.276c.022-.173.043-.346.065-.519l4.715.025.02.494Z" transform="translate(911.49 995.524)"/>
    <path id="Path_8" data-name="Path 8" class="cls-2" d="M-188.29,240.476a.965.965,0,0,1-.023.45l-4.807-.037a1.366,1.366,0,0,0,.03-.413Z" transform="translate(911.49 995.524)"/>
    <path id="Path_9" data-name="Path 9" class="cls-3" d="M-400.547,424.769c-.129,2.015-.327,3.842-.349,5.671-.083,6.957-.158,13.914-.149,20.872q.08,60.352.218,120.707c.036,12.476.317,24.952.389,37.429a63.116,63.116,0,0,1-.538,10.766c-1.066,6.343-1.821,12.808-5.25,18.532a42.834,42.834,0,0,1-12.411,13.492c-19.7,13.608-50.443,7.213-59.068-20.819a56.9,56.9,0,0,1-2.375-16.8q-.023-31.557-.007-63.114-.024-77.993-.06-155.984c0-6.885.089-13.768,1.479-20.538a53.255,53.255,0,0,1,2.181-7.08c.514-1.439,6.39-9.6,7.525-10.675,12.228-11.566,26.335-14.684,42.252-9.218a36.84,36.84,0,0,1,6.632,3.314,4.756,4.756,0,0,0,5.15.239c2.251-1.2,4.637-2.148,6.975-3.179a27.771,27.771,0,0,1,10.221-2.329c4.315-.164,8.632-.323,12.949-.366,17.276-.176,34.553-.378,51.83-.422,9.277-.024,18.557.165,27.831.433a90.2,90.2,0,0,1,13.131,1.091,33.136,33.136,0,0,1,17.166,9.021c6.834,6.505,10.4,14.679,11.627,23.9a80.161,80.161,0,0,1,.582,10.522q.047,98.151.037,196.3c0,9.2.262,18.394.353,27.591a52.657,52.657,0,0,1-1.456,14.042c-3.926,14.812-12.539,25.39-27.743,29.589-9.326,2.575-18.377,1.068-27.14-2.674-1.762-.752-3.5-1.568-5.225-2.4a5.622,5.622,0,0,1-1.6-1.041c-3.662-3.749-7.478-7.353-10.329-11.826a30.051,30.051,0,0,1-4.272-10.858c-.2-1.085-.145-2.234-1.1-3.078a1.9,1.9,0,0,1-.375-1.1,21.622,21.622,0,0,1-.275-2.854q-.016-52.072.007-104.147c.022-20.8.225-41.594.167-62.39-.026-9.514-.484-19.027-.752-28.54-.013-.471-.082-.94-.153-1.717a66.453,66.453,0,0,0-6.632-.666c-7.6-.03-15.194.09-22.791.142q-13.2.09-26.392.161C-398.919,424.772-399.55,424.769-400.547,424.769Z" transform="translate(911.49 995.524)"/>
    <path id="Path_10" data-name="Path 10" class="cls-4" d="M-167.137,424.454c-.155,5.01-.434,9.88-.434,14.751q0,35.271.145,70.541c.082,17.674.3,35.348.45,53.022.075,9.036.261,18.075.142,27.109-.142,10.713-.47,21.425-.9,32.13-.191,4.783-.474,9.651-2.89,13.969-1.823,3.258-3.451,6.807-5.972,9.459-7.6,8-16.66,13.393-28.121,13.6a39.968,39.968,0,0,1-18.612-3.773,53.841,53.841,0,0,1-6.4-4.155c-.854-.583-1.561-1.38-2.412-1.97-6.7-4.653-10.331-11.254-11.794-19.074a89.068,89.068,0,0,1-1.437-12.6c-.247-5.909-.094-11.834-.094-17.753q0-89.016-.019-178.034c-.005-8.235-.291-16.47-.358-24.706a99.022,99.022,0,0,1,1.888-21.46c1.417-6.666,3.918-12.847,8.541-17.988,5.116-5.689,11.706-8.759,19.024-10.437a63.51,63.51,0,0,1,14.508-1.565q28.671.123,57.344.244c11.356.061,22.714.1,34.068.317a33.84,33.84,0,0,1,17.84,5.573c2.458,1.579,4.473,3.772,6.8,5.572,1.507,1.167,2.407,3.119,3.567,4.728.184.255.251.607.462.826,4.423,4.593,6.29,10.4,7.1,16.441a39.531,39.531,0,0,1-9.1,31.772c-5.237,6.273-12.247,9.622-20.069,11.388-8.726,1.97-17.582,2.048-26.478,1.733-10.064-.358-20.135-.548-30.205-.717a38.449,38.449,0,0,0-5.472.609A5.67,5.67,0,0,0-167.137,424.454Z" transform="translate(911.49 995.524)"/>
    <path id="Path_11" data-name="Path 11" class="cls-3" d="M-464.3,346.493a67.146,67.146,0,0,0-10.889,9.544A42.285,42.285,0,0,0-484.95,379.1c-1.041,8.618-.427,17.248-.24,25.88.123,5.669-.06,11.344-.123,17.017a11.842,11.842,0,0,1-.248,1.57l-11.823.746c-.121,3.71-.319,7.211-.334,10.712-.084,19.756-.181,39.512-.167,59.268q.036,47.631.207,95.261c.023,9.118.212,18.236.105,27.352a60.763,60.763,0,0,1-1.072,11.917c-2.45,11.479-9.249,19.889-19.455,25.455-10.311,5.623-21.07,6.576-32.1,2.152-2.815-1.128-5.574-2.4-8.333-3.663a7.484,7.484,0,0,1-1.981-1.322,70.754,70.754,0,0,1-9.626-11.581,30.593,30.593,0,0,1-4.751-10.909,35.468,35.468,0,0,1-.752-5.451c-.148-2.393-.13-4.8-.131-7.2q-.008-92.5-.024-185c-.007-10.316-.335-20.631-.424-30.947a133.322,133.322,0,0,1,1.538-23.667,69.2,69.2,0,0,1,2.067-8.36,11.438,11.438,0,0,1,3.567-5.591,3.872,3.872,0,0,0,1-1.31,13.051,13.051,0,0,1,5.928-6.343,2.546,2.546,0,0,0,.741-.6c3.881-4.566,9.216-6.5,14.749-7.9,5.7-1.446,11.566-1.366,17.407-1.277,1.119.017,2.237.115,3.356.129,17.432.217,34.864.451,52.3.61,2.388.022,4.778-.375,7.171-.5C-464.946,345.477-464.915,345.558-464.3,346.493Z" transform="translate(911.49 995.524)"/>
    <path id="Path_12" data-name="Path 12" class="cls-5" d="M-193.12,240.889l4.807.037h10.125l4.808-.037c42.037,2.146,79.974,15.661,113.553,41.12,5.342,4.05,10.458,8.413,15.5,12.839,2.691,2.364,4.939,5.226,7.48,7.769,15.6,15.6,27.67,33.674,37.285,53.43a192.55,192.55,0,0,1,17.741,58.958,121.943,121.943,0,0,1,1.413,17.426q.007,8.92.016,17.842,0,2.394,0,4.789A192.688,192.688,0,0,1-8.259,546.3c-5.631,9.322-11.581,18.439-18.755,26.653A226.833,226.833,0,0,1-43.4,590.463a256.11,256.11,0,0,1-20.082,16.348A21.888,21.888,0,0,0-71.71,618.5c-2.737,9.191-5.676,18.322-8.6,27.456-.973,3.041-2.116,6.032-3.273,9.01a26.544,26.544,0,0,1-1.838,3.632,9.711,9.711,0,0,1-9.136,5.113,15.79,15.79,0,0,1-4.745-.539,7.585,7.585,0,0,1-4.986-5.084c-2.1-6.879-4.146-13.776-6.214-20.665-.138-.459-.272-.92-.417-1.377-.577-1.811-.578-1.811-2.762-2.011-.55,2.377-1.05,4.787-1.669,7.165a97.561,97.561,0,0,1-5.8,17c-2.386,5.083-6.559,7.005-12,5.637a7.884,7.884,0,0,1-5.575-4.18c-1.908-4.041-3.873-8.08-5.395-12.272-2.563-7.06-4.789-14.241-7.174-21.366-1.192-3.562-2.459-7.1-3.618-10.672a29.287,29.287,0,0,1-.992-4.194,7.7,7.7,0,0,1,6.9-9.186c1.106-.129,2.238-.016,3.355-.067a4.718,4.718,0,0,1,4.457,2.326,26.531,26.531,0,0,1,2.812,5.525c1.431,4.4,2.566,8.9,3.849,13.352.775,2.686,1.57,5.368,2.425,8.029a24.144,24.144,0,0,0,1.273,2.715c1.392-1,1.525-2.3,1.866-3.472,1.825-6.294,3.6-12.6,5.476-18.882a30.779,30.779,0,0,1,1.945-4.89c3.127-6.276,11.871-6.22,15.638-2.378a15.5,15.5,0,0,1,3.966,6.216c1.569,5.111,2.908,10.293,4.369,15.438.736,2.589,1.535,5.16,2.367,7.945a6.04,6.04,0,0,0,2.42-3.615c1.177-3.732,2.251-7.5,3.343-11.256s2.144-7.53,3.239-11.288a14.018,14.018,0,0,1,6.078-8c5.192-3.443,10.375-6.958,15.2-10.891A186.207,186.207,0,0,0-44.234,569.5c2.358-2.608,4.645-5.28,6.961-7.926.158-.18.378-.367.417-.579.4-2.15,2.162-3.24,3.53-4.643a35.663,35.663,0,0,0,6.265-9.03c.858-1.706,1.761-3.4,2.776-5.016,3.782-6.021,7.927-11.806,10.915-18.319C-5.283,506.359.68,488.073,3.1,468.811c6.938-55.27-7.291-104.55-43.227-147.121-26.17-31-59.475-50.978-98.821-60.828a176.662,176.662,0,0,0-29.071-4.664,175.772,175.772,0,0,0-32.587.214c-35.9,3.847-68.706,15.665-97.2,38.338a213.813,213.813,0,0,0-33.134,33.583c-2.609,3.238-5.2,6.5-7.633,9.867a3.97,3.97,0,0,1-3.988,1.983,19.417,19.417,0,0,0-2.114-.012,5.507,5.507,0,0,1,.248-1.644,43.3,43.3,0,0,1,3.391-6.036,216.423,216.423,0,0,1,24.37-27.7c26.212-24.594,56.783-41.189,91.874-49.243a186.689,186.689,0,0,1,37.527-4.628c32.971-.767,64.151,6.327,93.264,21.752,37.69,19.969,66.156,49.111,84.954,87.477A181.68,181.68,0,0,1,7.126,412.661a188.523,188.523,0,0,1,2.2,36.581C7.5,494.175-7.455,534.049-36.817,568.334-46.859,580.058-57.978,590.572-70.9,599.1c-2.2,1.453-4.266,3.11-6.46,4.575a9.4,9.4,0,0,0-3.854,5.041c-1.954,6-3.937,12-5.79,18.029-2.065,6.722-4.009,13.481-5.979,20.232-.267.914-.324,1.889-.584,2.807a24.74,24.74,0,0,1-.919,2.362h-.6c-.377-1.39-.8-2.77-1.125-4.173a247.65,247.65,0,0,0-10.917-36.237c-.53-1.333-1.236-2.595-1.853-3.894a2,2,0,0,0-1.9-1.16c-5.176-.4-6.08.019-7.643,5.082-2.12,6.871-3.931,13.836-5.949,20.739-1.5,5.137-3.108,10.246-4.705,15.355-.323,1.035-.817,2.017-1.233,3.023l-.539.042a34.434,34.434,0,0,1-1.609-3.822c-1.671-5.754-3.245-11.537-4.876-17.3-1.544-5.459-3.061-10.926-4.7-16.355-.529-1.747-1.45-3.372-2.136-5.075-.626-1.554-1.8-1.889-3.292-1.627a10.291,10.291,0,0,0-1.4.32c-1.694.549-2.012.88-1.7,2.592a66.917,66.917,0,0,0,1.954,8.884q5.629,17.074,11.6,34.037a16.909,16.909,0,0,0,3.171,5.293c2.181,2.52,5.066,2.431,7.252-.091a11.8,11.8,0,0,0,2.281-3.886c1.534-4.625,2.9-9.3,4.268-13.983,2.1-7.212,4.141-14.443,6.226-21.66.26-.9.641-1.763.966-2.643l.516-.045c.846,2.211,1.867,4.374,2.5,6.644,1.967,7,3.713,14.062,5.694,21.057,1.044,3.685,2.369,7.291,3.635,10.909a26.254,26.254,0,0,0,1.4,2.776,4.873,4.873,0,0,0,7.012,1.787,9.8,9.8,0,0,0,3.042-2.966,68.76,68.76,0,0,0,3.265-6.913,14.013,14.013,0,0,0,.8-2.51c2.019-8.662,5.072-16.989,8.006-25.364a115.856,115.856,0,0,0,3.1-11.558A3.981,3.981,0,0,1-72.1,607.1c6.23-4.747,12.7-9.216,18.613-14.337q48.038-41.637,63.423-103.4A186.762,186.762,0,0,0,15.1,431.518C12.184,388.063-2.773,349.24-30.963,315.889c-29.054-34.375-65.861-56.211-109.708-66.157a188.764,188.764,0,0,0-51.464-4.346,199.6,199.6,0,0,0-90.974,27.183,192.313,192.313,0,0,0-45.236,35.662c-2.326,2.508-4.252,5.385-6.431,8.034-.9,1.092-2.12,1.93-2.952,3.063-3.406,4.637-6.73,9.335-10.06,14.027-1.2,1.695-2.434,3.383-3.479,5.174a3.167,3.167,0,0,1-3.575,1.694c-.759-.112-1.532-.133-2.623-.222a23.313,23.313,0,0,1,1.395-3.268c2.259-3.58,4.435-7.231,6.953-10.626a253.539,253.539,0,0,1,23.325-27.377c24.4-24.656,53.549-41.209,86.871-50.546a191.023,191.023,0,0,1,33.387-6.315C-201.4,241.473-197.258,241.212-193.12,240.889Z" transform="translate(911.49 995.524)"/>
    <path id="Path_13" data-name="Path 13" class="cls-5" d="M-326.776,339.824a15.525,15.525,0,0,1,4.192-5.888c.479-.4,1.125-.787,1.322-1.318a20.143,20.143,0,0,1,4.836-6.753c6.733-6.947,13.39-14.036,20.71-20.334,22-18.927,47.4-31.162,75.762-37.308a167.979,167.979,0,0,1,36.4-3.967c46.116.213,86.888,15.037,121.614,45.536,18.776,16.491,32.833,36.6,43.049,59.389A178.06,178.06,0,0,1-4.841,418.347a172.5,172.5,0,0,1,1.209,35.422,175.133,175.133,0,0,1-14.185,57.95,177.142,177.142,0,0,1-39.828,57.655c-7.574,7.284-16.13,13.356-24.677,19.423-1.435,1.018-2.854,2.061-4.323,3.027a8.38,8.38,0,0,0-3.563,4.25c-.791,2.072-3.107,3.177-5.244,3.848a9.635,9.635,0,0,1-12.395-9.289,7.308,7.308,0,0,1,3.573-6.417,13.71,13.71,0,0,1,6.318-2.058c1.443-.127,2.836-.274,3.648-1.819a4.991,4.991,0,0,1,1.609-1.4c3.243-2.325,6.52-4.6,9.75-6.944a161.612,161.612,0,0,0,34.94-35.032c13.794-18.617,22.617-39.448,27.222-62.1a163.341,163.341,0,0,0,3.288-36.24c-.612-27.523-7.25-53.455-20.921-77.442A141.037,141.037,0,0,0-47.679,346.9c-4.224-5.682-8.149-11.638-13.368-16.527-5.192-4.863-10.162-10-15.634-14.52a168.106,168.106,0,0,0-17.072-12.38,190.738,190.738,0,0,0-18.65-10.325,150.479,150.479,0,0,0-45.716-13.695,164.63,164.63,0,0,0-37.809-.7,165.213,165.213,0,0,0-60.851,17.586,160.667,160.667,0,0,0-49.073,39.024c-.623.73-1.242,1.465-1.9,2.16-2.194,2.3-3.683,2.786-7.124,2.331a2.808,2.808,0,0,1,1.457-3.384,5.847,5.847,0,0,0,1.734-1.63,129.322,129.322,0,0,1,21.284-21.7,172.746,172.746,0,0,1,59.358-32.462,165.126,165.126,0,0,1,33.054-6.666c27.844-2.725,54.634,1.64,80.577,11.8,30.12,11.8,54.305,31.2,73.065,57.431A169.323,169.323,0,0,1-14.7,414.61c5.315,31.747,1.372,62.457-11.105,92.079a166.211,166.211,0,0,1-37.659,55.372c-4.29,4.161-9.156,7.739-13.848,11.471-3.561,2.833-7.268,5.483-10.9,8.224A9.737,9.737,0,0,0-89.667,583c-1.449,1.629-1.4,2.237.4,4.24a23.943,23.943,0,0,0,3.73-1.8c4.374-3.085,8.794-6.126,12.964-9.474A168.733,168.733,0,0,0-26.36,518.445,174.606,174.606,0,0,0-9.625,463.4c3.744-28.7.82-56.625-9.6-83.7-6.026-15.657-14.751-29.758-24.678-43.188-15.225-20.6-34.707-36.067-57.232-47.984A163.939,163.939,0,0,0-147.15,271.9a170.167,170.167,0,0,0-42.239-2.776,183.628,183.628,0,0,0-73.861,20.256,161.123,161.123,0,0,0-37.55,27.23c-4.444,4.245-8.541,8.858-12.718,13.376a34.126,34.126,0,0,0-2.579,3.723,13.478,13.478,0,0,1-1.069,1.274,41.231,41.231,0,0,0-3.192,3.553,3.272,3.272,0,0,1-3.464,1.534C-324.679,339.944-325.551,339.922-326.776,339.824ZM-93.729,592.5c-.157-.861-.293-1.636-.439-2.41a3.848,3.848,0,0,0-4.587-3.328c-2.6.405-3.8,1.852-3.567,4.31.053.552.129,1.105.227,1.651a3.513,3.513,0,0,0,2.691,2.726,2.683,2.683,0,0,0,3.371-.889A15.133,15.133,0,0,1-93.729,592.5Z" transform="translate(911.49 995.524)"/>
    <path id="Path_14" data-name="Path 14" class="cls-5" d="M-279.594,345.847l-3.292-2.7c.453-.532.777-.961,1.148-1.343a142.172,142.172,0,0,1,75.664-41.186,133.066,133.066,0,0,1,31.734-2.434A142.478,142.478,0,0,1-55.788,370.169,139.48,139.48,0,0,1-38.684,419,137.587,137.587,0,0,1-46.6,490.171a143.544,143.544,0,0,1-22.8,39.8,132.246,132.246,0,0,1-22.172,21.509c-2.351,1.788-4.907,3.308-7.271,5.082-1.563,1.174-3.246,2.333-3.978,4.855a16.789,16.789,0,0,0,3.4-1.029,74.717,74.717,0,0,0,7.514-4.682c12-8.9,21.9-19.854,30.514-31.989a144.314,144.314,0,0,0,24.445-56.589,140.829,140.829,0,0,0,1.919-41.3,144.354,144.354,0,0,0-25.2-68.591C-78.521,330.79-103.2,312.889-133.7,302.926a148.852,148.852,0,0,0-36.361-7.125,149.905,149.905,0,0,0-28.259.713,140.257,140.257,0,0,0-46.548,14.062,131.972,131.972,0,0,0-33.548,24.144c-1.815,1.8-3.83,3.392-5.808,5.012a11.981,11.981,0,0,1-2.455,1.487c-1.9.9-2.442.752-4.282-1.047.861-.895,1.728-1.8,2.6-2.7a153.485,153.485,0,0,1,46.261-33.3,145.626,145.626,0,0,1,40.782-11.929,157.959,157.959,0,0,1,33.977-1.223,143.407,143.407,0,0,1,77.236,28.99,151.068,151.068,0,0,1,54.558,77.848A134.467,134.467,0,0,1-29.6,448.078c-2.945,38.347-17.207,71.684-45.038,98.742a175.454,175.454,0,0,1-22.546,18.24,48.684,48.684,0,0,0-5.306,4.791c-.639.6-1.146,1.339-1.78,1.945a7.955,7.955,0,0,1-10.874.086c-3.188-2.948-3.657-8.161-.863-11.267a7.363,7.363,0,0,1,3.126-2.045,39.867,39.867,0,0,0,10.082-4.941,137.371,137.371,0,0,0,37.316-36.878c10.21-14.668,16.4-31.027,20.19-48.374a131.991,131.991,0,0,0,2.8-36.967c-2.081-31.566-13.478-59.369-34.606-82.965-20.418-22.8-45.854-36.9-75.887-42.778a134.782,134.782,0,0,0-33.417-2.261c-24.4,1.349-47.181,7.934-67.7,21.53a140.7,140.7,0,0,0-17.6,14.071c-1.88,1.736-3.793,3.438-5.712,5.131C-278.056,344.711-278.771,345.208-279.594,345.847ZM-113.1,567.587c1.131.374,2.174.778,3.25,1.048a2.2,2.2,0,0,0,1.576-.068,10.008,10.008,0,0,0,2.23-2.151,2.265,2.265,0,0,0,.311-1.762c-.791-2.57-4.894-3.505-6.626-1.495A3.983,3.983,0,0,0-113.1,567.587Z" transform="translate(911.49 995.524)"/>
    <path id="Path_15" data-name="Path 15" class="cls-6" d="M-498.33,327.272c-2.406.207-4.466.531-6.528.537-9.352.024-18.7.042-28.055-.108-4.789-.076-9.584-.39-14.354-.835a16.944,16.944,0,0,1-5.975-1.571c-11.742-5.946-20.1-15-22.5-28.129-2.312-12.637,1.043-24.291,9.191-34.328,4.584-5.647,10.882-8.781,17.667-10.989,7.662-2.494,15.443-3.281,23.357-1.319a22.122,22.122,0,0,1,3.838,1.324,44.784,44.784,0,0,1,20.243,18.412,23.031,23.031,0,0,1,2.985,12.376c-.13,13.908.063,27.819.13,41.729C-498.327,325.237-498.33,326.1-498.33,327.272ZM-550.259,282.2a21.125,21.125,0,0,1,3.043,1.192c3.275,1.889,4.18.908,5.81-1.932.355-.619.55-1.328.857-1.978.342-.721.746-1.413,1.09-2.133.441-.921,1.109-1.044,2.065-.574-.372.876-.72,1.765-1.125,2.628a1.515,1.515,0,0,0,.771,2.2,5.777,5.777,0,0,0,2.024.676c2.14.217,4.291.327,6.439.471.832.056,1.665.09,3,.16l-3.918,4.345c.848,1.3,1.577,2.537,2.438,3.677a7.509,7.509,0,0,0,1.642,1.364c1.106.807,1.213,1.945,1.277,3.66a19.059,19.059,0,0,1-2.177-1.4c-1.774-1.558-2.815-1.416-3.794.668-1.224,2.6-2.344,5.255-3.608,7.838a3.688,3.688,0,0,0-.008,3.183c.973,2.64,3.063,4.412,4.731,6.516a4.717,4.717,0,0,0,3.848,1.906,4.2,4.2,0,0,0,.351-.5A5.723,5.723,0,0,1-520.01,311a4.187,4.187,0,0,0,1.64-.3,3.694,3.694,0,0,0,1.685-1.121,48.682,48.682,0,0,0,6.9-17.494,5.658,5.658,0,0,0-1.045-4.262c-1.21-1.863-2.147-3.916-3.458-5.7a21.081,21.081,0,0,0-3.7-3.644,2.1,2.1,0,0,0-1.816.09,3.845,3.845,0,0,0-1.71,1.572c-.627,1.362-1.539,1.3-3.431.886,2.969-2.493,3.665-5.965,6.062-8.153a3.009,3.009,0,0,0-2.6-3.321,5.085,5.085,0,0,1-3.957-3.776,3.113,3.113,0,0,0-2.6-2.224,19.958,19.958,0,0,0-3.783-.531c-3.916-.05-7.844.208-11.746-.021-3.524-.208-5.828,1.845-7.655,4.112-1.919,2.382-3.116,5.369-4.487,8.161-.885,1.8-.519,2.568,1.176,3.765,1.463,1.032,2.883,2.125,4.323,3.191l-12.125,1.063c0,1.127-.268,2.113.053,2.838.828,1.87.056,3.3-.809,4.838a6,6,0,0,0,.31,6.765c1.207,1.784,2.286,3.656,3.488,5.444,1.691,2.515,3.443,4.989,5.169,7.48a3.1,3.1,0,0,0,2.831,1.387c4.471-.017,8.942.1,13.413.146a4.592,4.592,0,0,0,1.074-.241V297.694c-3.427-1.26-7.13.211-10.492-1.112.64-2.082,2.737-1.392,3.825-2.485-.611-1.8-1.13-3.557-1.812-5.248a10.566,10.566,0,0,0-1.51-2.409C-547.913,285-549.1,283.611-550.259,282.2Z" transform="translate(911.49 995.524)"/>
    <path id="Path_16" data-name="Path 16" class="cls-7" d="M-7.588,715.468A49.522,49.522,0,0,0-8.02,720.4c.019,2.635.3,5.268.35,7.9a33.723,33.723,0,0,1-.237,5.252c-.322,2.326-.739,2.569-3.36,2.72-1.866-5.373-1.916-37.516-.022-43.989h2.68c.477,2.284.959,4.588,1.556,7.444a39.144,39.144,0,0,1,3.019-3.795c5.52-5.336,14.542-6.634,19.423.787a15.707,15.707,0,0,0,1.072,1.584,10.975,10.975,0,0,1,2.471,5.893,20.729,20.729,0,0,1-2.7,13.384,10.386,10.386,0,0,1-6.246,4.843,14.233,14.233,0,0,1-6.509.925,11.586,11.586,0,0,1-7.684-4.3c-.921-1.191-1.809-2.408-2.711-3.613Zm21.011-8.387c.082-1.406.217-2.6.194-3.8a4.09,4.09,0,0,0-.477-1.995c-.837-1.356-1.86-2.6-2.757-3.917a5.615,5.615,0,0,0-3.878-2.59c-2.982-.435-6.035-1.026-8.3,1.912-.576.747-1.58,1.182-2.091,1.956-1.122,1.705-2.738,3.471-2.91,5.327-.281,3.032-1.252,6.4,1.193,9.184a2.436,2.436,0,0,1,.526,1.32,3.642,3.642,0,0,0,1.625,2.546q1.308,1.051,2.663,2.045a8.294,8.294,0,0,0,11.14-1.693C12.732,714.255,14.081,710.865,13.423,707.081Z" transform="translate(911.49 995.524)"/>
    <path id="Path_17" data-name="Path 17" class="cls-8" d="M-388.7,697.77c0-.763,0-1.525,0-2.288-.022-3.757-.074-7.515-.053-11.273a24.651,24.651,0,0,1,.332-3.572,2.281,2.281,0,0,1,2.183-1.9c1.105-.136,1.514.831,1.7,1.685a25.326,25.326,0,0,1,.777,4.95c.046,4.153-.159,8.309-.176,12.464-.024,6.153.033,12.306.042,18.459,0,1.592.02,3.189-.089,4.776-.061.892-.392,1.774-1.511,1.861a2.3,2.3,0,0,1-2.477-1.085,10.277,10.277,0,0,1-.855-2.693,18.791,18.791,0,0,1-.028-2.868,24.76,24.76,0,0,0-2.266,1.663c-.52.485-.873,1.143-1.351,1.677-1.766,1.974-3.829,3.349-6.622,3.3-2.225-.036-4.457.1-6.674-.034a5.878,5.878,0,0,1-4.282-2.4c-4.311-5.544-6.121-11.733-4.274-18.653a20.1,20.1,0,0,1,2.592-5.863,9.656,9.656,0,0,1,8.211-4.221,44.732,44.732,0,0,1,6.441.432A4.553,4.553,0,0,1-395,693.257c1,.794,1.845,1.772,2.824,2.592.944.791,1.974,1.481,2.966,2.215Zm-.824,9.318a26.893,26.893,0,0,0-.051-4.137,7.75,7.75,0,0,0-1.27-3.251,18.88,18.88,0,0,0-3.03-3.051c-3.867-3.381-10.515-2.625-13.373,1.605-1.819,2.692-3.538,5.494-2.842,9.02a3.035,3.035,0,0,1,0,.956c-.3,2.39.576,4.363,1.657,6.494,1.884,3.714,4.859,5.055,8.683,5.261,3.963.214,6.7-1.409,8.846-4.883A9.579,9.579,0,0,0-389.526,707.088Z" transform="translate(911.49 995.524)"/>
    <path id="Path_18" data-name="Path 18" class="cls-9" d="M-320.755,692.22a3.494,3.494,0,0,1,3.736,1.983,24.132,24.132,0,0,1,1.954,4.871c1.068,4.1,1.9,8.255,2.934,12.36a25.19,25.19,0,0,0,3.342,8.337,6.884,6.884,0,0,0,2.1-3.526c.987-3.535,1.813-7.116,2.715-10.675.745-2.941,1.422-5.9,2.3-8.8a19.066,19.066,0,0,1,1.847-3.608,2.872,2.872,0,0,1,2.84-1.4,1.669,1.669,0,0,1,1.69,1.06c.453,1.023.969,2.022,1.356,3.069a124.179,124.179,0,0,1,5.87,20.486,3.484,3.484,0,0,0,.984,1.8c1.006.932,1.866.661,2.29-.694.835-2.669,1.609-5.358,2.375-8.048,1.423-5,2.822-10,4.23-15,.54-1.922.814-2.121,3.6-2.376a11.727,11.727,0,0,1,.012,2.982c-1,3.941-2.023,7.886-3.267,11.756-1.418,4.41-3.067,8.747-4.648,13.1a6.819,6.819,0,0,1-1.085,2.116,3.215,3.215,0,0,1-5.459-.748c-1.29-3.261-2.361-6.618-3.369-9.981-1.077-3.6-1.995-7.243-2.936-10.88a6.523,6.523,0,0,0-2.869-4.032c-2.443,9.113-4.565,18.186-8.228,26.876h-4.077C-314.711,713.315-318.767,703.29-320.755,692.22Z" transform="translate(911.49 995.524)"/>
    <path id="Path_19" data-name="Path 19" class="cls-8" d="M-190.705,706.4a2.591,2.591,0,0,0,2.947-1.054c1.683-1.924,3.3-3.913,5.072-5.755,1.987-2.067,4.049-4.074,6.208-5.961a4.99,4.99,0,0,1,4.023-1.452,5.238,5.238,0,0,1-1.7,4.565c-1.051,1.086-2.308,1.969-3.407,3.013-.778.739-2.028,1.595-2.031,2.4a8.541,8.541,0,0,0,1.294,4.231c1.446,2.383,3.291,4.52,4.795,6.871a51.6,51.6,0,0,1,3.171,5.9c.791,1.685.723,2.048.387,4.077a3.541,3.541,0,0,1-3.665-1.525,38.1,38.1,0,0,1-2.438-3.839c-1.928-3.4-3.632-6.944-6.431-9.782a7.663,7.663,0,0,1-.94-1.83,11.428,11.428,0,0,0-1.614.962c-1.466,1.237-2.862,2.557-4.336,3.784a3.138,3.138,0,0,0-1.214,2.489c-.018,1.358,0,2.716.009,4.074.005.638.08,1.279.041,1.914-.174,2.833-1.054,3.524-4.481,3.359a21.571,21.571,0,0,1-.449-2.437,260.567,260.567,0,0,1,.041-37.611c.073-1.032.283-2.057.458-3.08a5.278,5.278,0,0,1,.3-.863c2.041-.093,2.966.314,3.463,2.118a21.511,21.511,0,0,1,.838,5.65c0,5.592-.215,11.185-.336,16.777C-190.724,704.415-190.705,705.434-190.705,706.4Z" transform="translate(911.49 995.524)"/>
    <path id="Path_20" data-name="Path 20" class="cls-10" d="M-424.96,723.023a4.885,4.885,0,0,1-4.292-1.569,20.362,20.362,0,0,0-2.969-2.235c-1.216.721-2.54,1.442-3.8,2.265a10.166,10.166,0,0,1-7.249,1.846c-2.128-.312-4.282-.485-6.387-.909a4.994,4.994,0,0,1-4.2-4.371,15.413,15.413,0,0,1-.247-4.985,5.177,5.177,0,0,1,3.782-4.2c1.2-.363,2.335-.961,3.532-1.349s2.441-.686,3.677-.967c4.1-.93,8.21-1.835,12.356-2.759.072-3-.322-5.5-1.895-7.808a3.78,3.78,0,0,0-2.866-1.862c-2.373-.252-4.718-.761-7.136-.156-2.593.649-4.794,1.755-6.062,4.234-.829,1.62-2.129,1.993-3.948,1.537a6.8,6.8,0,0,1,3.5-6.108,19.741,19.741,0,0,1,5.785-2.106,18.851,18.851,0,0,1,11.487,1.193,16.693,16.693,0,0,0,3.147.72,14.41,14.41,0,0,1,2.627,8.381,163.89,163.89,0,0,0,1.138,18.4A26.954,26.954,0,0,1-424.96,723.023Zm-5.634-17.438c-5.252,1.467-10.123,2.958-15.068,4.146a3.994,3.994,0,0,0-3.365,3.48,12.458,12.458,0,0,0-.187,3.55,4.316,4.316,0,0,0,4.355,3.838c1.993.022,3.994.028,5.977-.134a8.284,8.284,0,0,0,7-5.486C-430.772,712.211-430.989,708.916-430.594,705.585Z" transform="translate(911.49 995.524)"/>
    <path id="Path_21" data-name="Path 21" class="cls-8" d="M-63.514,707.7c.1,9.012-5.161,15.044-14.127,15.9-7.209.684-15.584-3.37-17.011-12.732a22.775,22.775,0,0,1-.139-6.653A14.505,14.505,0,0,1-81.8,691.736a21.935,21.935,0,0,1,6.888.244c6.814,1.476,10.859,6.364,11.389,13.323C-63.461,706.1-63.514,706.9-63.514,707.7Zm-26.5-1.628c-.006,4.939,1.219,8.591,3.9,11.669,4.166,4.782,10.156,4.767,14.366.019a12.343,12.343,0,0,0,1.279-1.734c3.287-5.361,2.548-14.168-1.573-18.938-2.751-3.185-6.339-4.053-10.153-2.291C-87.346,697.171-89.936,701.26-90.019,706.07Z" transform="translate(911.49 995.524)"/>
    <path id="Path_22" data-name="Path 22" class="cls-7" d="M-250.925,723.724c-2.256-.453-4.55-.771-6.758-1.4A9,9,0,0,1-263.1,718.2c-2.05-3.53-3.846-7.2-3.436-11.493a20.1,20.1,0,0,1,3.243-9.66,12.43,12.43,0,0,1,9.52-5.32,25.641,25.641,0,0,1,12.818,2.391,3.385,3.385,0,0,1,1.4,1.2,27.434,27.434,0,0,1,4.46,10.772c.522,3.353.27,6.773-1.718,9.449-1.6,2.153-2.785,4.807-5.471,6.125A22,22,0,0,1-250.925,723.724Zm-10.459-16.148a14.423,14.423,0,0,0,2.136,8.57c4.069,6.35,11.96,6.525,16.618.36,3.7-4.9,3.5-13.3-.18-18.253a9.839,9.839,0,0,0-16.886,1.335A16.573,16.573,0,0,0-261.384,707.576Z" transform="translate(911.49 995.524)"/>
    <path id="Path_23" data-name="Path 23" class="cls-7" d="M-366.87,736.782l-4.715-.025-3.147-1.467c1.422-1.711,3.043-1.588,4.565-1.362a6.259,6.259,0,0,0,6.722-4.891,8.988,8.988,0,0,0,.382-2.829,39.251,39.251,0,0,0-1.33-7.992c-1.8-5.283-4.009-10.428-6.072-15.62-.531-1.336-1.21-2.614-1.7-3.962a29.38,29.38,0,0,1-1.221-4.125c-.219-1.055-.57-2.288.591-3.075.656-.444,2.449.517,3.1,1.776a31.759,31.759,0,0,1,1.847,4.413c1.832,5.451,3.543,10.944,5.42,16.379.719,2.083,1.763,4.054,2.658,6.075l.587,0a15.089,15.089,0,0,0,1.09-1.959c1.421-3.731,2.86-7.458,4.165-11.23,1.41-4.076,2.674-8.2,4.011-12.3.748-2.3,1.223-2.571,4.191-2.293a14.5,14.5,0,0,1-.345,2.725c-1.363,4.256-2.713,8.52-4.249,12.715-2.088,5.7-4.324,11.345-6.533,17-.726,1.859-1.6,3.662-2.345,5.512A10.046,10.046,0,0,1-366.87,736.782Z" transform="translate(911.49 995.524)"/>
    <path id="Path_24" data-name="Path 24" class="cls-7" d="M-465.143,707.012l-23.632.632c-.277,5.291.916,9.78,5.459,12.845a2.723,2.723,0,0,0,1.053.5c4.627.663,9.108.741,12.756-2.954a7.226,7.226,0,0,1,4.616-2.269,7.786,7.786,0,0,1-4.126,5.668,18.515,18.515,0,0,1-10.655,2.129c-1.937-.147-4-.152-5.521-1.751a.9.9,0,0,0-.451-.149c-4.127-.852-6.115-3.865-7.326-7.5-2.074-6.229-1.131-12.152,2.212-17.724a9.367,9.367,0,0,1,5.183-4.073,18.115,18.115,0,0,1,18.029,3.213C-463.972,698.448-463.208,702.555-465.143,707.012Zm-4.118-.686a12.474,12.474,0,0,0-2.663-9.506,8.235,8.235,0,0,0-10.792-2.01c-4.259,2.5-6.955,6.005-6.159,11.516Z" transform="translate(911.49 995.524)"/>
    <path id="Path_25" data-name="Path 25" class="cls-7" d="M-143.67,736.763l-7.19.052a19.6,19.6,0,0,1-6.941-2.36,5.771,5.771,0,0,1-3.022-5.309c1.967-.607,3.112-.469,4.016.959,2.891,4.56,7.277,4.632,11.879,4.184,4-.39,6.368-2.748,7.4-6.465a23.921,23.921,0,0,0,1.027-5.876c.087-4.389-.1-8.784-.192-13.176-.062-3.115-.26-6.234-.161-9.344a18.257,18.257,0,0,1,.981-4.9,3.439,3.439,0,0,1,3.394-2.5,24.69,24.69,0,0,1,.741,3.757c.15,3.428.2,6.862.192,10.294-.013,5.035-.045,10.072-.206,15.1a49.567,49.567,0,0,1-.759,7.367,7.427,7.427,0,0,1-4.335,5.573A28.078,28.078,0,0,1-143.67,736.763Z" transform="translate(911.49 995.524)"/>
    <path id="Path_26" data-name="Path 26" class="cls-5" d="M-142.375,694.625a49.382,49.382,0,0,0-6.4-.227,8.5,8.5,0,0,0-6.7,4.529,15.61,15.61,0,0,0-.562,15.377c2.3,4.741,6.9,6.491,12.354,5.041.7-.185,1.417-.293,2.511-.514-4.381,5.328-12.714,4.526-16.395.742a16.737,16.737,0,0,1-3.365-4.877,19.721,19.721,0,0,1-.012-15.855,11.86,11.86,0,0,1,15.318-6.572A5.609,5.609,0,0,1-142.375,694.625Z" transform="translate(911.49 995.524)"/>
    <path id="Path_27" data-name="Path 27" class="cls-10" d="M-552.925,696.923a7.1,7.1,0,0,1,1.006-1.708c3.154-2.636,6.636-4.537,10.916-3.744,4.4.815,6.742,3.858,7.5,8.035a60.262,60.262,0,0,1,.872,9.3c.082,3.508-.131,7.027-.317,10.535-.126,2.349-.254,2.443-2.209,4.39A4.3,4.3,0,0,1-538,719.742c-.117-2.313-.21-4.629-.223-6.944-.019-3.437.1-6.875.036-10.31a15.967,15.967,0,0,0-.635-3.765,3.948,3.948,0,0,0-2.539-3,43.55,43.55,0,0,0-6.567-1.117c-.493-.055-1.106.511-1.587.888C-550.729,696.443-550.711,696.465-552.925,696.923Z" transform="translate(911.49 995.524)"/>
    <path id="Path_28" data-name="Path 28" class="cls-5" d="M-48.184,692.275a31.885,31.885,0,0,1,.977,5.144c.087,3.025-.187,6.059-.233,9.09a48.736,48.736,0,0,0,.117,7.628c.5,3.464,2.6,5.3,6.063,5.843,1.725.268,3.479.36,5.52.561a11.847,11.847,0,0,1-1.48,1.287,10.453,10.453,0,0,1-10.719.437,8.247,8.247,0,0,1-4.46-7.2c-.176-2.466-.114-4.949-.165-7.424q-.106-5.267-.223-10.533c-.008-.4-.033-.8-.025-1.2C-52.749,692.845-51.835,692.04-48.184,692.275Z" transform="translate(911.49 995.524)"/>
    <path id="Path_29" data-name="Path 29" class="cls-7" d="M-558.222,723.7c-1.826-.907-2.5-2.37-2.649-4.418a158.328,158.328,0,0,1,.164-23.967c.074-.951.3-1.89.489-3.013h3.281c.275,1.562.663,3.176.832,4.813a111.8,111.8,0,0,1,.187,22.749C-556.15,722.151-556.152,722.151-558.222,723.7Z" transform="translate(911.49 995.524)"/>
    <path id="Path_30" data-name="Path 30" class="cls-7" d="M-220.627,722.91c-2.345-.269-3.2-.952-3.552-2.908a13.449,13.449,0,0,1-.144-2.385c-.006-6.624-.015-13.248.025-19.872a12.3,12.3,0,0,1,.4-3.3,2.818,2.818,0,0,1,3.124-2.307C-218.118,697.164-217.995,717.442-220.627,722.91Z" transform="translate(911.49 995.524)"/>
    <path id="Path_31" data-name="Path 31" class="cls-5" d="M-25.918,723.212c-2.533-.21-2.861-.45-3.071-2.537-.768-7.633-1.417-15.277-.907-22.957.121-1.812.518-3.605.8-5.514h3.24C-24.122,696.422-24.145,717.484-25.918,723.212Z" transform="translate(911.49 995.524)"/>
    <path id="Path_32" data-name="Path 32" class="cls-5" d="M-578.743,704.676c.045-.628.134-1.257.126-1.884-.031-2.437-.092-4.874-.142-7.31.754-3.119,1.341-3.551,4.453-3.009,1.1,10.056,1.5,20.151-.324,30.28-.795.1-1.261.172-1.73.205-.388.027-.78.005-1.2.005a9.151,9.151,0,0,1-1.006-4.891Q-578.666,711.374-578.743,704.676Z" transform="translate(911.49 995.524)"/>
    <path id="Path_33" data-name="Path 33" class="cls-5" d="M-115.533,722.55c-2.865.566-3.879-.122-4.146-2.722a9.282,9.282,0,0,1-.051-.957c0-7.106-.027-14.213.035-21.319a18.111,18.111,0,0,1,.611-4.242c.152-.6.833-1.483,1.276-1.485.652,0,1.351.613,1.943,1.077a1.714,1.714,0,0,1,.5,1.056,44.217,44.217,0,0,1,.694,6.414c-.134,7.024-.454,14.044-.711,21.065A10.514,10.514,0,0,1-115.533,722.55Z" transform="translate(911.49 995.524)"/>
    <path id="Path_34" data-name="Path 34" class="cls-11" d="M-515.6,709.2q0,5.512,0,11.026a6.1,6.1,0,0,1-.1,1.666,1.709,1.709,0,0,1-3.125.652,6.416,6.416,0,0,1-1.144-3.3c-.108-7.749-.1-15.5-.058-23.251a7.854,7.854,0,0,1,.648-2.764c.418-1.055,1.435-1.2,2.428-1.1s1.246.922,1.289,1.749c.125,2.391.24,4.785.281,7.178.047,2.715.011,5.431.011,8.147Z" transform="translate(911.49 995.524)"/>
    <path id="Path_35" data-name="Path 35" class="cls-7" d="M-204.213,695.849c-3.927-.854-7.674.452-11.681,1.028a3.617,3.617,0,0,1,1.6-3.495,8.674,8.674,0,0,1,7.481-1.474C-204.442,692.452-204.093,692.944-204.213,695.849Z" transform="translate(911.49 995.524)"/>
    <path id="Path_36" data-name="Path 36" class="cls-9" d="M-511.876,697.085c.689-3.429,2.492-5.082,5.569-5.4,2.549-.265,4.753.141,6.258,2.9C-503.8,696.284-507.827,696.01-511.876,697.085Z" transform="translate(911.49 995.524)"/>
    <path id="Path_37" data-name="Path 37" class="cls-7" d="M-111.709,697.726c-.827-.95-.336-1.557.076-2.122,2.186-3.01,5.052-4.522,8.845-3.927,2.03.318,2.925,1.382,3.162,3.831-1.824,0-3.651.116-5.457-.031a6.792,6.792,0,0,0-5.119,1.41A10.261,10.261,0,0,1-111.709,697.726Z" transform="translate(911.49 995.524)"/>
    <path id="Path_38" data-name="Path 38" class="cls-10" d="M-578,682.653v-3.136c1.133-.425,2.127-1.11,3.326-.1,1.133.955.507,2.021.485,3.237Z" transform="translate(911.49 995.524)"/>
    <path id="Path_39" data-name="Path 39" class="cls-5" d="M-514.307,296.783c.009,1.637.5,2.743-.838,3.494-.338.19-.461.8-.636,1.232-.3.737-.6,1.477-.829,2.238-.964,3.243-3.137,4.79-6.5,4.914-2.05.075-4.091.391-6.176.6l-2.71-4.6c.742-1.763,1.539-3.571,2.261-5.408.364-.928,1.041-1.068,1.9-1.059,2.309.025,4.619.016,6.928.014C-518.765,298.213-516.582,298.47-514.307,296.783Z" transform="translate(911.49 995.524)"/>
    <path id="Path_40" data-name="Path 40" class="cls-11" d="M-523.647,274.412c-.716,1.388-1.428,2.722-2.093,4.08a1.609,1.609,0,0,1-1.652,1.093c-2.064-.106-4.129-.166-6.262-.247-2.031-4.39-4.242-8.6-5.771-13.344,3.21,0,6.071-.031,8.93.015a3.288,3.288,0,0,1,2.881,1.838C-526.369,269.978-525.065,272.075-523.647,274.412Z" transform="translate(911.49 995.524)"/>
    <path id="Path_41" data-name="Path 41" class="cls-5" d="M-539.437,272.388l-5.324,8.514c-1.207-.423-2.341-.741-3.407-1.213a29.767,29.767,0,0,1-3.593-1.868c-1.347-.832-2.109-1.733-.657-3.422a52.84,52.84,0,0,0,3.915-5.691c1.343-2.059,3.825-2.571,5.589-.84A39.187,39.187,0,0,1-539.437,272.388Z" transform="translate(911.49 995.524)"/>
    <path id="Path_42" data-name="Path 42" class="cls-12" d="M-526.327,286.866l7.372-5.072c2.541,2.261,4.773,4.591,5.905,7.755.765,2.141.026,3.739-2.1,4.663a18.476,18.476,0,0,1-2.975.863,3.492,3.492,0,0,1-4.252-1.665C-523.69,291.341-525.466,289.561-526.327,286.866Z" transform="translate(911.49 995.524)"/>
    <path id="Path_43" data-name="Path 43" class="cls-12" d="M-555.636,303.786c-.882-1.467-1.5-2.391-2.013-3.372-.918-1.768-1.7-3.614-2.679-5.343a3.057,3.057,0,0,1-.156-3.137c.826-1.728,1.558-3.507,2.224-5.3a1.892,1.892,0,0,1,2.2-1.358c1.274.093,2.571,0,3.826.2a3.672,3.672,0,0,1,2,1,12.36,12.36,0,0,1,1.671,2.605,3.236,3.236,0,0,1-.1,3.413c-.664,1.09-1.33,2.181-1.965,3.289-1.031,1.8-2.007,3.628-3.069,5.406C-554.161,301.963-554.782,302.653-555.636,303.786Z" transform="translate(911.49 995.524)"/>
    <path id="Path_44" data-name="Path 44" class="cls-11" d="M-539.69,299.7a14.723,14.723,0,0,1,.532,9.378c-3.053.316-6.123.708-9.2.921-1.509.105-3.617-1.675-3.971-3.19a2.9,2.9,0,0,1,.249-1.575c.52-1.341,1.238-2.614,1.653-3.982a2.834,2.834,0,0,1,2.831-2.129A20.5,20.5,0,0,1-539.69,299.7Z" transform="translate(911.49 995.524)"/>
  </g>
</svg>
